#!OML:ASF C:\ViconDB\ViconDB\414\Spring2016\041811\Spring2016.ASF
:FULLY-SPECIFIED
:DEGREES
242
root 8.23779 17.3651 -14.4814 -178.242 1.53796 -190.626
lowerback -4.16488 -0.00801016 -3.14138
upperback -0.496253 0.166177 -0.28903
thorax 1.81772 0.073587 1.47478
lowerneck -12.1772 0.867659 -5.91248
upperneck 28.9202 4.58639 1.07968
head 11.2632 2.37753 2.16996
rclavicle 3.13086e-015 4.6118e-014
rhumerus -82.8414 29.0936 -114.294
rradius 88.5702
rwrist 30.3905
rhand -45.159 0.0666888
rfingers 7.12502
rthumb -17.9366 -29.1262
lclavicle 3.13086e-015 4.6118e-014
lhumerus -91.7914 -44.8733 126.949
lradius 75.7297
lwrist -18.1934
lhand -42.2264 -2.29555
lfingers 7.12502
lthumb -15.1133 27.1327
rfemur 386.77 136.524 -325.028
rtibia 29.4268
rfoot -419.408 -68.3497
rtoes 7.59588
lfemur 0.325346 0.568416 -37.3793
ltibia 25.5066
lfoot -23.0945 -22.4846
ltoes -4.51539
243
root 8.2159 17.3235 -14.6659 -178.227 1.61826 -190.674
lowerback -4.11825 -0.0567497 -3.088
upperback -0.536849 0.0925459 -0.173285
thorax 1.75327 0.0376523 1.55952
lowerneck -12.1892 1.06749 -5.51391
upperneck 28.9534 5.00315 0.418816
head 11.2965 2.53575 1.91751
rclavicle -1.04362e-015 -1.43125e-014
rhumerus -82.6854 28.8975 -113.919
rradius 88.5844
rwrist 30.8293
rhand -45.0942 -0.0766713
rfingers 7.12502
rthumb -17.8743 -29.2753
lclavicle -1.04362e-015 -1.43125e-014
lhumerus -91.9164 -44.899 127.338
lradius 75.4867
lwrist -18.2038
lhand -42.4583 -2.23069
lfingers 7.12502
lthumb -15.3366 27.1806
rfemur 387.599 136.214 -323.706
rtibia 29.4043
rfoot -422.183 -68.0297
rtoes 7.12491
lfemur 1.21462 0.468866 -37.5986
ltibia 25.017
lfoot -23.1909 -22.4177
ltoes -4.52988
244
root 8.19654 17.2799 -14.8566 -178.225 1.67388 -190.812
lowerback -4.11161 -0.106874 -3.16927
upperback -0.567753 0.0264671 -0.0833724
thorax 1.72099 0.00458221 1.69384
lowerneck -12.1554 1.21949 -5.44854
upperneck 28.9663 5.27254 0.241786
head 11.2947 2.64819 1.8765
rclavicle 4.94477e-015 -4.45278e-014
rhumerus -82.7001 28.7428 -113.702
rradius 88.7349
rwrist 31.1355
rhand -45.3112 -0.277495
rfingers 7.12502
rthumb -18.0831 -29.4569
lclavicle 4.94477e-015 -4.45278e-014
lhumerus -92.1526 -44.8594 127.875
lradius 75.2119
lwrist -18.1941
lhand -42.6994 -1.9799
lfingers 7.12502
lthumb -15.5689 27.4134
rfemur 387.516 136.312 -323.375
rtibia 29.5832
rfoot -422.355 -68.3063
rtoes 7.70721
lfemur 2.16362 0.357157 -37.9286
ltibia 24.5146
lfoot -23.3565 -22.2573
ltoes -4.76595
245
root 8.18751 17.2344 -15.0492 -178.285 1.51176 -190.946
lowerback -4.02606 -0.276425 -3.40242
upperback -0.56926 -0.196982 0.0545495
thorax 1.68456 -0.108972 1.95428
lowerneck -12.1845 1.4201 -4.89954
upperneck 29.0546 5.74846 -0.648778
head 11.3729 2.82518 1.52713
rclavicle -7.0817e-015 -1.11319e-014
rhumerus -82.5582 28.7361 -113.316
rradius 88.96
rwrist 31.176
rhand -45.0021 -0.0219332
rfingers 7.12502
rthumb -17.7856 -29.2286
lclavicle -7.0817e-015 -1.11319e-014
lhumerus -92.213 -44.7254 128.306
lradius 74.9758
lwrist -17.8276
lhand -42.5289 -2.14476
lfingers 7.12502
lthumb -15.4046 27.2613
rfemur 386.36 136.956 -324.303
rtibia 29.9404
rfoot -419.525 -68.4035
rtoes 5.95175
lfemur 3.22771 0.0410319 -38.2247
ltibia 23.9897
lfoot -23.4225 -22.0953
ltoes -5.12245
246
root 8.18165 17.1985 -15.2482 -178.24 1.24024 -190.729
lowerback -4.04621 -0.379341 -3.22991
upperback -0.589446 -0.346018 0.219191
thorax 1.68381 -0.183215 2.01862
lowerneck -12.2861 1.50262 -4.47708
upperneck 29.1981 5.97371 -1.16961
head 11.4784 2.91438 1.3042
rclavicle 7.33018e-015 -1.59028e-015
rhumerus -82.351 28.4694 -112.866
rradius 89.2929
rwrist 31.0061
rhand -44.9581 0.335059
rfingers 7.12502
rthumb -17.7433 -28.8754
lclavicle 7.33018e-015 -1.59028e-015
lhumerus -92.6457 -44.8127 129.086
lradius 74.6803
lwrist -17.7072
lhand -42.6351 -1.92534
lfingers 7.12502
lthumb -15.5069 27.4728
rfemur 384.906 137.57 -325.026
rtibia 30.4589
rfoot -416.333 -68.2533
rtoes 3.95948
lfemur 4.22891 -0.356754 -38.1159
ltibia 23.5169
lfoot -23.4889 -21.9853
ltoes -5.44028
247
root 8.16984 17.1637 -15.4458 -178.297 0.94534 -190.385
lowerback -3.9445 -0.543738 -2.9252
upperback -0.63055 -0.58795 0.439628
thorax 1.59805 -0.301685 2.0618
lowerneck -12.2518 1.65974 -4.23716
upperneck 29.3202 6.26622 -1.43037
head 11.5329 3.04996 1.21125
rclavicle -1.2424e-016 -3.18055e-015
rhumerus -82.054 28.1708 -112.33
rradius 89.5664
rwrist 31.4305
rhand -44.5328 0.454624
rfingers 7.12502
rthumb -17.334 -28.7924
lclavicle -1.2424e-016 -3.18055e-015
lhumerus -93.3131 -44.7222 130.071
lradius 74.5696
lwrist -16.7712
lhand -42.3113 -2.46174
lfingers 7.12502
lthumb -15.1951 26.9603
rfemur 382.726 138.535 -326.314
rtibia 31.1434
rfoot -412.055 -68.2444
rtoes 1.49801
lfemur 5.38366 -0.856617 -37.9069
ltibia 22.9937
lfoot -23.3961 -21.7409
ltoes -5.71425
248
root 8.16842 17.1338 -15.6519 -178.116 0.470399 -190.174
lowerback -4.05511 -0.893636 -2.97551
upperback -0.897993 -1.04741 0.627065
thorax 1.41604 -0.522352 2.25867
lowerneck -11.8532 1.85987 -3.34191
upperneck 29.3777 6.71994 -2.45455
head 11.5446 3.26181 0.742774
rclavicle 6.93262e-015 -3.18055e-014
rhumerus -82.2574 28.0847 -112.146
rradius 90.0136
rwrist 31.5953
rhand -44.1835 0.858392
rfingers 7.12502
rthumb -16.9978 -28.4179
lclavicle 6.93262e-015 -3.18055e-014
lhumerus -93.8178 -44.0674 130.715
lradius 74.0847
lwrist -16.7427
lhand -42.5334 -2.32354
lfingers 7.12502
lthumb -15.409 27.0822
rfemur 380.67 139.425 -327.588
rtibia 31.9981
rfoot -408.476 -68.2915
rtoes -0.427317
lfemur 6.45625 -1.38213 -37.7606
ltibia 22.2339
lfoot -23.1417 -21.6538
ltoes -6.04366
249
root 8.17644 17.1099 -15.8654 -178.048 -0.0270814 -189.691
lowerback -4.13945 -1.1397 -2.85355
upperback -0.912938 -1.4421 0.975389
thorax 1.47685 -0.745489 2.52503
lowerneck -12.0429 2.06578 -3.28817
upperneck 29.4987 7.06771 -2.5568
head 11.6374 3.40686 0.750555
rclavicle 5.76476e-015 7.95139e-015
rhumerus -81.9498 28.1529 -111.513
rradius 90.4441
rwrist 31.7009
rhand -43.8225 1.22454
rfingers 7.12502
rthumb -16.6503 -28.0813
lclavicle 5.76476e-015 7.95139e-015
lhumerus -94.0092 -43.7399 131.332
lradius 73.8148
lwrist -16.3429
lhand -42.6243 -2.16018
lfingers 7.12502
lthumb -15.4965 27.2388
rfemur 378.427 140.136 -328.433
rtibia 32.9364
rfoot -407.038 -68.1536
rtoes -0.146491
lfemur 7.81781 -1.75605 -37.2517
ltibia 21.193
lfoot -22.3559 -21.6518
ltoes -6.25742
250
root 8.17288 17.1296 -16.081 -177.891 -0.490626 -189.377
lowerback -4.28933 -1.36353 -2.6918
upperback -1.02486 -1.75333 1.16002
thorax 1.46685 -0.901693 2.60451
lowerneck -12.0108 2.22146 -2.97444
upperneck 29.5247 7.3096 -2.80396
head 11.6635 3.52455 0.640207
rclavicle -2.37051e-014 3.97569e-014
rhumerus -81.6363 27.9175 -110.952
rradius 90.9203
rwrist 31.6081
rhand -43.226 1.26788
rfingers 7.12502
rthumb -16.076 -28.0853
lclavicle -2.37051e-014 3.97569e-014
lhumerus -94.4044 -43.4197 132.167
lradius 73.4288
lwrist -15.4252
lhand -42.8143 -2.47834
lfingers 7.12502
lthumb -15.6795 26.9064
rfemur 376.787 140.511 -328.981
rtibia 33.8812
rfoot -413.861 -66.3387
rtoes -8.19947
lfemur 9.20856 -2.21858 -36.9665
ltibia 19.8269
lfoot -21.5132 -21.4305
ltoes -6.94431
251
root 8.17457 17.1568 -16.2961 -177.695 -1.08857 -188.942
lowerback -4.39623 -1.65657 -2.5372
upperback -1.1516 -2.16197 1.44201
thorax 1.42822 -1.10732 2.78297
lowerneck -12.1602 2.37321 -2.61602
upperneck 29.6926 7.59048 -3.12559
head 11.7908 3.65 0.509307
rclavicle 2.96189e-014 -1.06549e-013
rhumerus -81.1979 27.9332 -110.204
rradius 91.3499
rwrist 31.7075
rhand -42.5396 1.45713
rfingers 7.12502
rthumb -15.4149 -27.9481
lclavicle 2.96189e-014 -1.06549e-013
lhumerus -94.8711 -43.0491 133.121
lradius 73.1133
lwrist -14.7396
lhand -43.2815 -1.95393
lfingers 7.12502
lthumb -16.1294 27.3949
rfemur 375.076 141.557 -330.042
rtibia 34.7255
rfoot -415.717 -64.7733
rtoes -16.3125
lfemur 10.6351 -2.66349 -36.4482
ltibia 18.3284
lfoot -20.3987 -21.3472
ltoes -6.90993
252
root 8.17904 17.1968 -16.5103 -177.446 -1.73226 -188.352
lowerback -4.46017 -1.98041 -2.26812
upperback -1.36864 -2.62547 1.78481
thorax 1.2761 -1.34064 2.9591
lowerneck -12.1092 2.54859 -2.55268
upperneck 29.7076 7.9228 -3.34839
head 11.8044 3.78751 0.462525
rclavicle 8.39865e-015 2.54444e-014
rhumerus -80.8741 27.9908 -109.559
rradius 91.709
rwrist 31.7606
rhand -41.7301 1.64069
rfingers 7.12502
rthumb -14.6351 -27.8229
lclavicle 8.39865e-015 2.54444e-014
lhumerus -95.1194 -42.4921 133.899
lradius 72.4921
lwrist -15.008
lhand -43.9015 -1.02608
lfingers 7.12502
lthumb -16.7264 28.2734
rfemur 373.027 143.767 -331.957
rtibia 35.462
rfoot -410.046 -64.2178
rtoes -21.5851
lfemur 11.9038 -3.33029 -35.8014
ltibia 16.9775
lfoot -19.2185 -21.0337
ltoes -7.47017
